<svg width="269" height="120" viewBox="0 0 269 120" fill="none" xmlns="http://www.w3.org/2000/svg">
<path d="M66.263 40C81.9001 40 97.4601 40 113.097 40C155.078 40 197.06 40 238.964 40C254.909 40 265 44.0224 265 50.3169C265 62.4453 265 74.5431 265 86.6715C265 92.4748 254.524 96.6507 239.965 96.6507C232.108 96.6507 224.251 96.6507 216.394 96.6507C215.316 96.6507 214.237 96.6814 212.928 96.7121C212.928 104.204 212.928 111.543 212.928 119.157C211.772 118.666 211.156 118.39 210.463 118.083C195.981 111.266 202.982 103.529 188.5 96.7121C186.959 96.0059 163.86 96.6199 161.472 96.6199C129.736 96.6507 97.9993 96.6507 66.263 96.6507C52.1665 96.6507 43.077 92.9968 43 87.3471C43 74.6659 43 61.954 43 49.2729C43.077 43.6232 52.0895 40 66.263 40Z" fill="#F14E00"/>
<path d="M114.76 60.9854V76.626H111.537V60.9854H114.76ZM124.127 60.9854L117.929 68.709L114.352 72.5547L113.771 69.5039L116.188 66.1953L120.174 60.9854H124.127ZM120.464 76.626L115.855 69.3965L118.24 67.3984L124.277 76.626H120.464ZM134.16 60.9854H137.372V71.3193C137.372 72.5225 137.114 73.5358 136.599 74.3594C136.09 75.1829 135.385 75.8024 134.482 76.2178C133.587 76.6331 132.556 76.8408 131.389 76.8408C130.221 76.8408 129.183 76.6331 128.273 76.2178C127.371 75.8024 126.662 75.1829 126.146 74.3594C125.638 73.5358 125.384 72.5225 125.384 71.3193V60.9854H128.606V71.3193C128.606 72.0212 128.717 72.5941 128.939 73.0381C129.161 73.4821 129.48 73.8079 129.896 74.0156C130.318 74.2233 130.816 74.3271 131.389 74.3271C131.976 74.3271 132.474 74.2233 132.882 74.0156C133.297 73.8079 133.612 73.4821 133.827 73.0381C134.049 72.5941 134.16 72.0212 134.16 71.3193V60.9854ZM147.019 60.9854V76.626H143.807V60.9854H147.019ZM151.831 60.9854V63.5098H139.069V60.9854H151.831ZM155.988 60.9854L159.254 68.1182L162.52 60.9854H166.032L160.887 70.9326V76.626H157.621V70.9326L152.465 60.9854H155.988ZM172.402 63.6602L168.148 76.626H164.722L170.533 60.9854H172.714L172.402 63.6602ZM175.937 76.626L171.672 63.6602L171.328 60.9854H173.53L179.374 76.626H175.937ZM175.743 70.8037V73.3281H167.482V70.8037H175.743ZM170.587 60.1045L172.692 56.7959H176.055L173.101 60.1045H170.587ZM184.047 60.9854V76.626H180.824V60.9854H184.047ZM193.414 60.9854L187.216 68.709L183.639 72.5547L183.059 69.5039L185.476 66.1953L189.461 60.9854H193.414ZM189.751 76.626L185.143 69.3965L187.527 67.3984L193.564 76.626H189.751ZM207.54 60.9854V76.626H204.317L198.033 66.1416V76.626H194.811V60.9854H198.033L204.328 71.4805V60.9854H207.54ZM216.896 63.6602L212.643 76.626H209.216L215.027 60.9854H217.208L216.896 63.6602ZM220.431 76.626L216.166 63.6602L215.822 60.9854H218.024L223.868 76.626H220.431ZM220.237 70.8037V73.3281H211.977V70.8037H220.237ZM228.541 60.9854V76.626H225.318V60.9854H228.541ZM237.908 60.9854L231.71 68.709L228.133 72.5547L227.553 69.5039L229.97 66.1953L233.955 60.9854H237.908ZM234.245 76.626L229.637 69.3965L232.021 67.3984L238.059 76.626H234.245ZM242.603 60.9854L242.248 71.8457H239.67L239.305 60.9854H242.603ZM239.219 75.208C239.219 74.7497 239.376 74.3701 239.691 74.0693C240.014 73.7614 240.436 73.6074 240.959 73.6074C241.489 73.6074 241.911 73.7614 242.227 74.0693C242.542 74.3701 242.699 74.7497 242.699 75.208C242.699 75.652 242.542 76.028 242.227 76.3359C241.911 76.6439 241.489 76.7979 240.959 76.7979C240.436 76.7979 240.014 76.6439 239.691 76.3359C239.376 76.028 239.219 75.652 239.219 75.208Z" fill="white"/>
<g clip-path="url(#clip0_476_186)">
<path d="M44.6209 90.7804L42.7196 91.4009L42.7548 91.5088L42.802 91.612C44.6142 95.5756 46.925 97.9585 49.7184 98.737C52.4949 99.5108 55.1287 98.5246 57.1918 97.1926C59.2748 95.8478 61.0753 93.9668 62.3768 92.361C63.0355 91.5482 63.5877 90.7796 64.005 90.143C64.3305 89.6466 64.6299 89.1464 64.818 88.7428C67.4921 84.5958 69.6948 83.0686 71.4616 82.4998C73.229 81.9308 74.8752 82.1835 77.031 82.5143C77.1409 82.5312 77.2521 82.5483 77.3647 82.5654L77.5026 82.5864L77.642 82.5881C81.9156 82.6396 85.0156 81.8293 87.3497 80.6666C89.6579 79.5168 91.0967 78.0764 92.0529 77.1192L92.0751 77.0969L92.2308 76.941L92.3488 76.7551C95.0695 72.4682 93.0611 67.95 90.948 64.9822C89.8432 63.4305 88.5739 62.0932 87.5094 61.1001C86.5233 60.18 85.6202 59.4695 85.1155 59.1518C73.18 50.8199 64.5526 49.169 58.5514 50.0044C55.559 50.421 53.3176 51.4447 51.7387 52.4401C50.9521 52.9359 50.3384 53.4194 49.887 53.804C49.6629 53.995 49.479 54.1617 49.3467 54.2816C49.2166 54.3994 49.1788 54.4321 49.1793 54.4326C49.1793 54.4327 49.1807 54.4317 49.1829 54.43L49.1077 54.4868L49.0333 54.5558C41.8446 61.2256 40.3755 70.6258 40.5811 78.028C40.6849 81.7612 41.2154 85.0862 41.7181 87.4754C41.97 88.6724 42.2162 89.6409 42.4012 90.3157C42.4938 90.6533 42.5712 90.9179 42.6265 91.1014C42.6542 91.1931 42.6763 91.2646 42.6921 91.3149L42.7109 91.3742L42.7166 91.3917L42.7184 91.3973L42.7191 91.3994C42.7193 91.4002 42.7196 91.4009 44.6209 90.7804Z" fill="#0D0D0D" stroke="#F14E00" stroke-width="4"/>
<path d="M41.2651 75.6436C43.2914 72.9586 43.3556 69.5025 42.2513 66.3314C41.1425 63.1471 38.8001 60.0144 35.5689 57.5759C32.3377 55.1374 28.6827 53.744 25.3164 53.551C21.9641 53.3588 18.6581 54.3684 16.6318 57.0534C14.6055 59.7384 14.5413 63.1945 15.6456 66.3656C16.7544 69.5499 19.0968 72.6826 22.328 75.1211C25.5592 77.5596 29.2142 78.9529 32.5804 79.146C35.9328 79.3382 39.2388 78.3286 41.2651 75.6436Z" fill="#0D0D0D" stroke="#F14E00" stroke-width="4"/>
<path d="M42.079 35.5765C39.2958 32.6338 35.9189 30.6573 32.6311 29.911C29.3589 29.1682 25.9318 29.6145 23.4953 31.9217C21.0587 34.2289 20.4246 37.6283 20.9856 40.9384C21.5492 44.2642 23.3356 47.7469 26.1187 50.6897C28.9019 53.6324 32.2789 55.6089 35.5666 56.3552C38.8389 57.098 42.2659 56.6517 44.7025 54.3444C47.139 52.0372 47.7732 48.6379 47.2122 45.3278C46.6485 42.0019 44.8622 38.5192 42.079 35.5765Z" fill="#0D0D0D" stroke="#F14E00" stroke-width="4"/>
<path d="M64.7965 30.1271C63.5595 26.2686 61.3705 23.0254 58.7305 20.9309C56.1032 18.8464 52.8219 17.7672 49.6287 18.797C46.4354 19.8267 44.3961 22.6217 43.4724 25.8513C42.5442 29.0965 42.65 33.0115 43.887 36.87C45.1239 40.7285 47.313 43.9717 49.9529 46.0662C52.5802 48.1507 55.8616 49.2299 59.0548 48.2001C62.2481 47.1704 64.2874 44.3754 65.2111 41.1458C66.1392 37.9006 66.0335 33.9856 64.7965 30.1271Z" fill="#0D0D0D" stroke="#F14E00" stroke-width="4"/>
<path d="M90.2514 40.1891C89.8964 36.1514 88.4775 32.5038 86.3655 29.8773C84.2639 27.2636 81.3023 25.4855 77.9606 25.7855C74.6189 26.0855 72.0139 28.3632 70.4013 31.3104C68.7807 34.2719 68.0205 38.1151 68.3755 42.1528C68.7306 46.1905 70.1495 49.8381 72.2614 52.4645C74.3631 55.0782 77.3247 56.8563 80.6664 56.5563C84.0081 56.2564 86.613 53.9786 88.2257 51.0315C89.8463 48.07 90.6065 44.2268 90.2514 40.1891Z" fill="#0D0D0D" stroke="#F14E00" stroke-width="4"/>
</g>
<defs>
<clipPath id="clip0_476_186">
<rect width="78.7424" height="81.9563" fill="white" transform="translate(0 62.8525) rotate(-52.9589)"/>
</clipPath>
</defs>
</svg>
