<svg width="59" height="59" viewBox="0 0 59 59" fill="none" xmlns="http://www.w3.org/2000/svg">
<path fill-rule="evenodd" clip-rule="evenodd" d="M0.625 29.5C0.625 43.7771 11.0521 55.6479 24.6875 58.0542L24.8485 57.9254C24.7948 57.915 24.7412 57.9045 24.6875 57.8938V37.5208H17.4688V29.5H24.6875V23.0833C24.6875 15.8646 29.3396 11.8542 35.9167 11.8542C38.0021 11.8542 40.2479 12.175 42.3333 12.4958V19.875H38.6438C35.1146 19.875 34.3125 21.6396 34.3125 23.8854V29.5H42.0125L40.7292 37.5208H34.3125V57.8938C34.2589 57.9045 34.2052 57.915 34.1515 57.9254L34.3125 58.0542C47.9479 55.6479 58.375 43.7771 58.375 29.5C58.375 13.6188 45.3812 0.625 29.5 0.625C13.6188 0.625 0.625 13.6188 0.625 29.5Z" fill="white"/>
</svg>
